<svg xmlns="http://www.w3.org/2000/svg" viewBox="0 0 423 332.33333"><defs><style>.cls-1{fill:url(#Dégradé_sans_nom_11)}</style><linearGradient id="Dégradé_sans_nom_11" x1="246.583" y1="301.917" x2="356.083" y2="192.417" gradientUnits="userSpaceOnUse"><stop offset="0" stop-color="#fad11c"/><stop offset=".062" stop-color="#f6c821"/><stop offset=".164" stop-color="#ecae2f"/><stop offset=".295" stop-color="#db8545"/><stop offset=".448" stop-color="#c34c64"/><stop offset=".567" stop-color="#af1a7f"/><stop offset=".994" stop-color="#49a0c5"/></linearGradient></defs><title>drawMouse</title><g id="Calque_2" data-name="Calque 2"><g id="Calque_1-2" data-name="Calque 1"><path d="M257 0h-40v12h40V0zm-80 0h-40v12h40V0zM97 0H57v12h40V0zM17 0H0v23h12V12h5V0zm-5 63H0v40h12V63zm0 80H0v40h12v-40zm53 43H25v12h40v-12zm80 0h-40v12h40v-12zm80 0h-40v12h40v-12zM337 70h-12v40h12V70zm0-70h-40v12h28v18h12V0z"/><path class="cls-1" d="M293.222 172.301l84.972 70.81h-53.063l-31.909 41.505zM277 137.667v194.666l56.12-73H423z"/></g></g></svg>