<svg xmlns="http://www.w3.org/2000/svg" viewBox="0 0 13.5 13.5"><defs><style>.cls-1{fill:none;stroke:#000;stroke-miterlimit:10;stroke-width:.5px}</style></defs><title>help_icon_svg</title><g id="Calque_2" data-name="Calque 2"><g id="Calque_1-2" data-name="Calque 1"><path d="M6.354 7.04a3.512 3.512 0 0 1 .341-.727l.504-.838a3.644 3.644 0 0 0 .318-.649 1.977 1.977 0 0 0 .09-.636q0-1.15-.888-1.15a.75.75 0 0 0-.714.348 2.394 2.394 0 0 0-.197 1.127h-.876q0-2.255 1.775-2.255a1.668 1.668 0 0 1 1.32.515 2.063 2.063 0 0 1 .455 1.415 2.316 2.316 0 0 1-.126.792 6.481 6.481 0 0 1-.461.936l-.444.743a2.164 2.164 0 0 0-.246.54 2.415 2.415 0 0 0-.054.564v.755h-.876v-.815a2.424 2.424 0 0 1 .079-.666zm.82 2.452v1.163H6.24V9.492z"/><circle class="cls-1" cx="6.75" cy="6.75" r="6.5"/></g></g></svg>