<svg xmlns="http://www.w3.org/2000/svg" viewBox="0 0 81.14423 100"><defs><style>.cls-1{fill:#3fa9f5}.cls-2{fill:#fad11c}.cls-3{fill:#936}</style></defs><title>logo-colorflow-small</title><g id="Calque_2" data-name="Calque 2"><g id="Calque_1-2" data-name="Calque 1"><path class="cls-1" d="M62.656 66.13l6.477 13.476s-7.449 6.401-21.942 6.401C28.327 86.007 11 70.005 11 50.127c0-19.962 17.245-36.134 36.191-36.134 14.493 0 21.942 6.4 21.942 6.4L62.656 33.87a22.644 22.644 0 0 0-13.117-4.295c-15.302 0-22.022 11.117-22.022 20.383 0 9.35 6.72 20.467 22.022 20.467a22.644 22.644 0 0 0 13.117-4.295z"/><path class="cls-2" d="M66.542 68.904L74.133 84.7s-8.73 7.502-25.716 7.502C26.307 92.201 6 73.446 6 50.15 6 26.753 26.212 7.8 48.417 7.8c16.986 0 25.716 7.502 25.716 7.502l-7.591 15.795a26.539 26.539 0 0 0-15.373-5.035c-17.935 0-25.811 13.03-25.811 23.89 0 10.958 7.876 23.988 25.81 23.988a26.539 26.539 0 0 0 15.374-5.035z"/><path class="cls-3" d="M71.205 72.234l8.928 18.577s-10.268 8.823-30.245 8.823C23.884 99.634 0 77.575 0 50.174 0 22.659 23.772.367 49.888.367c19.977 0 30.245 8.823 30.245 8.823l-8.928 18.577a31.213 31.213 0 0 0-18.08-5.921c-21.094 0-30.358 15.325-30.358 28.097 0 12.888 9.264 28.213 30.357 28.213a31.213 31.213 0 0 0 18.08-5.921z"/><path d="M53.536 81.199c-23.374 0-33.639-16.981-33.639-31.264 0-14.153 10.265-31.134 33.639-31.134a34.587 34.587 0 0 1 20.035 6.561L77.133 18l4.011-8.394A51.343 51.343 0 0 0 51.134 0C22.997 0 .19 22.386.19 50s22.808 50 50.943 50a51.343 51.343 0 0 0 30.011-9.606L77.134 82l-3.563-7.363A34.587 34.587 0 0 1 53.536 81.2z"/></g></g></svg>