<svg viewBox="0 0 630.41797 120" xmlns="http://www.w3.org/2000/svg" xmlns:xlink="http://www.w3.org/1999/xlink"><defs><style>.cls-1{fill:url(#a)}.cls-2{fill:url(#d)}.cls-3{fill:url(#c)}.cls-4{fill:url(#b)}</style><linearGradient id="a" x2="120" y1="60" y2="60" gradientUnits="userSpaceOnUse"><stop stop-color="#fad11c" offset="0"/><stop stop-color="#e8a534" offset=".095"/><stop stop-color="#d06954" offset=".234"/><stop stop-color="#be3e6b" offset=".353"/><stop stop-color="#b3247a" offset=".445"/><stop stop-color="#af1a7f" offset=".5"/><stop stop-color="#914194" offset=".576"/><stop stop-color="#7763a5" offset=".656"/><stop stop-color="#637eb3" offset=".739"/><stop stop-color="#5491bd" offset=".822"/><stop stop-color="#4c9cc3" offset=".908"/><stop stop-color="#49a0c5" offset="1"/></linearGradient><linearGradient id="d" x1="127.67" x2="200.33" y1="83.333" y2="83.333" xlink:href="#a"/><linearGradient id="c" x1="243.33" x2="316" y1="83.394" y2="83.394" xlink:href="#a"/><linearGradient id="b" x1="454.33" x2="527" y1="83.394" y2="83.394" xlink:href="#a"/></defs><title>logo7</title><g data-name="Calque 2"><g data-name="Calque 1"><path d="M208.7 97.857V29.995h16.121v66.822q0 4.94 2.015 6.955 2.015 2.016 7.215 2.016h6.11v13.91h-8.97q-11.44 0-16.966-5.396-5.525-5.395-5.525-16.445zm128.44-45.761v7.67a21.088 21.088 0 0 1 8.515-6.825 27.454 27.454 0 0 1 11.246-2.275 33.118 33.118 0 0 1 6.37.52v15.34a26.714 26.714 0 0 0-9.62-1.69q-7.67 0-11.896 4.486-4.225 4.485-4.226 12.936v37.44h-16.12V52.097zm58.24-3.38v3.38h14.561v11.31H395.38V119.7h-15.991V63.407h-9.1V52.096h9.1v-2.73q0-9.62 5.07-14.496 5.07-4.875 14.951-4.875h10.53v10.92h-5.98q-4.68 0-6.63 1.82-1.95 1.822-1.95 5.981zm25.08 49.141V29.995h16.121v66.822q0 4.94 2.015 6.955 2.015 2.016 7.215 2.016h6.11v13.91h-8.97q-11.44 0-16.966-5.396-5.525-5.395-5.525-16.445zM542.4 52.096l13.65 45.242 15.73-45.242h12.091l15.99 45.242 13.391-45.242h17.161l-23.271 67.603h-13.65l-15.601-45.762-15.731 45.762h-13.65l-23.142-67.603z"/><path class="cls-1" d="M60 0a60 60 0 1 0 60 60A60 60 0 0 0 60 0zm0 100a40 40 0 1 1 40-40 40 40 0 0 1-40 40z"/><path d="M82.188 93.282a40.004 40.004 0 1 1-.79-67.069l10.7-16.894a59.995 59.995 0 1 0 1.183 100.6zM120 60l-1 1h1"/><path class="cls-2" d="M164 47a36.333 36.333 0 1 0 36.333 36.333A36.333 36.333 0 0 0 164 47zm0 60.556a24.222 24.222 0 1 1 24.222-24.222A24.222 24.222 0 0 1 164 107.556z"/><path d="M143.85 96.769a24.224 24.224 0 1 1 40.614-.478l10.23 6.48a36.33 36.33 0 1 0-60.921.716zM164 119.67l-.606-.606v.606"/><path class="cls-3" d="M279.67 47.061a36.333 36.333 0 1 0 36.333 36.333 36.333 36.333 0 0 0-36.333-36.333zm0 60.556a24.222 24.222 0 1 1 24.222-24.222 24.222 24.222 0 0 1-24.222 24.222z"/><path d="M266.23 63.24a24.224 24.224 0 1 1 .478 40.614l-6.48 10.23a36.33 36.33 0 1 0-.716-60.921zm-22.9 20.154l.606-.606h-.606"/><path class="cls-4" d="M490.67 47.061a36.333 36.333 0 1 0 36.333 36.333 36.333 36.333 0 0 0-36.333-36.333zm0 60.556a24.222 24.222 0 1 1 24.222-24.222 24.222 24.222 0 0 1-24.222 24.222z"/><path d="M510.82 69.958a24.224 24.224 0 1 1-40.614.478l-10.23-6.48a36.33 36.33 0 1 0 60.921-.716zm-20.15-22.897l.606.606v-.606"/></g></g></svg>