<svg xmlns="http://www.w3.org/2000/svg" xmlns:xlink="http://www.w3.org/1999/xlink" viewBox="0 0 582.96743 95.56738"><defs><style>.cls-1{fill:url(#fad11c)}.cls-2{fill:url(#fad11c-2)}.cls-3{fill:url(#fad11c-3)}.cls-4{stroke:#000;stroke-miterlimit:10;stroke-width:.5px}</style><linearGradient id="fad11c" x1="86.025" y1="59.464" x2="149.374" y2="59.464" gradientUnits="userSpaceOnUse"><stop offset="0" stop-color="#fad11c"/><stop offset=".095" stop-color="#e8a534"/><stop offset=".234" stop-color="#d06954"/><stop offset=".353" stop-color="#be3e6b"/><stop offset=".445" stop-color="#b3247a"/><stop offset=".5" stop-color="#af1a7f"/><stop offset=".576" stop-color="#914194"/><stop offset=".656" stop-color="#7763a5"/><stop offset=".739" stop-color="#637eb3"/><stop offset=".822" stop-color="#5491bd"/><stop offset=".908" stop-color="#4c9cc3"/><stop offset="1" stop-color="#49a0c5"/></linearGradient><linearGradient id="fad11c-2" x1="410.025" y1="59.464" x2="473.374" y2="59.464" xlink:href="#fad11c"/><linearGradient id="fad11c-3" x1="199.025" y1="59.464" x2="262.374" y2="59.464" xlink:href="#fad11c"/></defs><title>logo</title><g id="Calque_2" data-name="Calque 2"><g id="Calque_1-2" data-name="Calque 1"><path d="M0 54.436V40.132q0-20 10.33-30.066Q20.663 0 39.073 0q16.82 0 26.82 8.278t10 22.98v1.06h-17.35v-.53q0-7.682-5.166-12.12-5.165-4.436-14.304-4.436-10.861 0-16.225 6.358-5.364 6.357-5.364 19.469v13.112q0 12.584 5.43 18.675 5.43 6.092 16.292 6.093 9.138 0 14.238-4.305 5.098-4.304 5.099-11.854v-.662H75.76v.662q0 15.1-9.934 23.443-9.933 8.345-26.887 8.344-18.41 0-28.674-10.065Q0 74.436 0 54.436z"/><path class="cls-1" d="M86.025 63.49v-8.32q0-15.569 8.456-23.688 8.455-8.12 23.353-8.12 14.763 0 23.152 8.187 8.388 8.187 8.388 23.621v8.321q0 15.704-8.388 23.89-8.389 8.187-23.152 8.187-14.898 0-23.353-8.187-8.455-8.186-8.456-23.89zm46.84-8.052q0-8.859-3.892-13.086-3.892-4.228-11.139-4.227-15.3 0-15.3 17.313v7.918q0 17.314 15.3 17.314 15.032 0 15.032-17.314z"/><path d="M89.85 63.004v-7.316q0-13.69 7.434-20.828 7.435-7.14 20.534-7.14 12.98 0 20.356 7.198 7.376 7.199 7.375 20.77v7.316q0 13.808-7.375 21.006-7.376 7.199-20.356 7.199-13.1 0-20.534-7.2-7.434-7.197-7.435-21.005zm41.185-7.08q0-7.789-3.423-11.506-3.422-3.718-9.794-3.717-13.453 0-13.454 15.223v6.962q0 15.224 13.454 15.223 13.217 0 13.217-15.222z"/><path class="cls-2" d="M410.025 63.49v-8.32q0-15.569 8.456-23.688 8.455-8.12 23.353-8.12 14.763 0 23.152 8.187 8.388 8.187 8.388 23.621v8.321q0 15.704-8.388 23.89-8.389 8.187-23.152 8.187-14.898 0-23.353-8.187-8.455-8.186-8.456-23.89zm46.84-8.052q0-8.859-3.892-13.086-3.892-4.228-11.139-4.227-15.3 0-15.3 17.313v7.918q0 17.314 15.3 17.314 15.032 0 15.032-17.314z"/><path d="M413.85 63.004v-7.316q0-13.69 7.434-20.828 7.435-7.14 20.534-7.14 12.98 0 20.356 7.198 7.376 7.199 7.375 20.77v7.316q0 13.808-7.375 21.006-7.376 7.199-20.356 7.199-13.1 0-20.534-7.2-7.434-7.197-7.435-21.005zm41.185-7.08q0-7.789-3.423-11.506-3.422-3.718-9.794-3.717-13.453 0-13.454 15.223v6.962q0 15.224 13.454 15.223 13.217 0 13.217-15.222z"/><path class="cls-3" d="M199.025 63.49v-8.32q0-15.569 8.456-23.688 8.455-8.12 23.353-8.12 14.763 0 23.152 8.187 8.388 8.187 8.388 23.621v8.321q0 15.704-8.388 23.89-8.389 8.187-23.152 8.187-14.898 0-23.353-8.187-8.455-8.186-8.456-23.89zm46.84-8.052q0-8.859-3.892-13.086-3.892-4.228-11.139-4.227-15.3 0-15.3 17.313v7.918q0 17.314 15.3 17.314 15.032 0 15.032-17.314z"/><path class="cls-4" d="M202.85 63.004v-7.316q0-13.69 7.434-20.828 7.435-7.14 20.534-7.14 12.98 0 20.356 7.198 7.376 7.199 7.375 20.77v7.316q0 13.808-7.375 21.006-7.376 7.199-20.356 7.199-13.1 0-20.534-7.2-7.434-7.197-7.435-21.005zm41.185-7.08q0-7.789-3.423-11.506-3.422-3.718-9.794-3.717-13.453 0-13.454 15.223v6.962q0 15.224 13.454 15.223 13.217 0 13.217-15.222z"/><path d="M161.247 71.425V3.563h16.12v66.822q0 4.94 2.015 6.955 2.016 2.015 7.216 2.015h6.11v13.91h-8.97q-11.44 0-16.966-5.395-5.525-5.395-5.525-16.445zm128.439-45.762v7.67a21.088 21.088 0 0 1 8.515-6.825 27.454 27.454 0 0 1 11.246-2.275 33.118 33.118 0 0 1 6.37.52v15.34a26.714 26.714 0 0 0-9.62-1.69q-7.67 0-11.896 4.486-4.225 4.485-4.225 12.935v37.442h-16.12V25.663zm58.24-3.38v3.38h14.56v11.31h-14.56v56.293h-15.99V36.974h-9.1v-11.31h9.1v-2.731q0-9.62 5.07-14.495 5.07-4.876 14.95-4.876h10.53v10.92h-5.98q-4.68 0-6.63 1.82-1.95 1.822-1.95 5.981zm25.088 49.142V3.563h16.121v66.822q0 4.94 2.015 6.955 2.016 2.015 7.215 2.015h6.11v13.91h-8.97q-11.44 0-16.965-5.395-5.526-5.395-5.526-16.445zm121.94-45.762l13.65 45.242 15.73-45.242h12.091l15.99 45.242 13.391-45.242h17.161l-23.271 67.603h-13.65l-15.601-45.762-15.73 45.762h-13.65l-23.142-67.603z"/></g></g></svg>