<svg xmlns="http://www.w3.org/2000/svg" xmlns:xlink="http://www.w3.org/1999/xlink" viewBox="0 0 606.41797 106"><defs><style>.cls-1{fill:url(#fad11c)}.cls-2{fill:none}.cls-3{fill:url(#fad11c-2)}.cls-4{fill:url(#fad11c-3)}.cls-5{fill:url(#fad11c-4)}</style><linearGradient id="fad11c" y1="53" x2="106" y2="53" gradientUnits="userSpaceOnUse"><stop offset="0" stop-color="#fad11c"/><stop offset=".095" stop-color="#e8a534"/><stop offset=".234" stop-color="#d06954"/><stop offset=".353" stop-color="#be3e6b"/><stop offset=".445" stop-color="#b3247a"/><stop offset=".5" stop-color="#af1a7f"/><stop offset=".576" stop-color="#914194"/><stop offset=".656" stop-color="#7763a5"/><stop offset=".739" stop-color="#637eb3"/><stop offset=".822" stop-color="#5491bd"/><stop offset=".908" stop-color="#4c9cc3"/><stop offset="1" stop-color="#49a0c5"/></linearGradient><linearGradient id="fad11c-2" x1="114" y1="76" x2="174" y2="76" xlink:href="#fad11c"/><linearGradient id="fad11c-3" x1="225" y1="76" x2="285" y2="76" xlink:href="#fad11c"/><linearGradient id="fad11c-4" x1="439" y1="76" x2="499" y2="76" xlink:href="#fad11c"/></defs><title>logo4</title><g id="Calque_2" data-name="Calque 2"><g id="Calque_1-2" data-name="Calque 1"><path d="M184.697 83.857V15.995h16.121v66.822q0 4.941 2.015 6.955 2.016 2.016 7.215 2.016h6.11v13.91h-8.97q-11.44 0-16.965-5.395-5.526-5.395-5.526-16.446zm128.44-45.761v7.67a21.088 21.088 0 0 1 8.515-6.826 27.454 27.454 0 0 1 11.245-2.274 33.118 33.118 0 0 1 6.37.52v15.34a26.714 26.714 0 0 0-9.62-1.69q-7.67 0-11.895 4.485-4.225 4.486-4.226 12.936v37.441h-16.12V38.096zm58.239-3.38v3.38h14.561v11.31h-14.56v56.292h-15.991V49.406h-9.1v-11.31h9.1v-2.73q0-9.62 5.07-14.496 5.07-4.875 14.95-4.875h10.531v10.92h-5.98q-4.68 0-6.63 1.82-1.95 1.821-1.95 5.98zm25.089 49.141V15.995h16.12v66.822q0 4.941 2.016 6.955 2.015 2.016 7.215 2.016h6.11v13.91h-8.97q-11.44 0-16.966-5.395-5.525-5.395-5.525-16.446zm121.939-45.761l13.65 45.242 15.731-45.242h12.091l15.99 45.242 13.39-45.242h17.162l-23.271 67.602h-13.65l-15.601-45.761-15.731 45.761h-13.65l-23.142-67.602z"/><path class="cls-1" d="M53 0a53 53 0 1 0 53 53A53 53 0 0 0 53 0zm0 88.333A35.333 35.333 0 1 1 88.333 53 35.333 35.333 0 0 1 53 88.333z"/><path d="M72.6 82.399a35.337 35.337 0 1 1-.698-59.245l9.451-14.923A52.995 52.995 0 1 0 82.4 97.098z"/><path class="cls-2" d="M81.353 8.231l-9.45 14.923a35.327 35.327 0 0 1 .696 59.245l9.8 14.7A52.99 52.99 0 0 0 81.353 8.23z"/><path class="cls-3" d="M144 46a30 30 0 1 0 30 30 30 30 0 0 0-30-30zm0 50a20 20 0 1 1 20-20 20 20 0 0 1-20 20z"/><path d="M127.36 87.094a20.002 20.002 0 1 1 33.534-.395l8.447 5.35a29.997 29.997 0 1 0-50.302.592z"/><path class="cls-2" d="M169.34 92.05l-8.446-5.35a19.997 19.997 0 0 1-33.535.394l-8.32 5.547a29.995 29.995 0 0 0 50.302-.592z"/><path class="cls-4" d="M255 46a30 30 0 1 0 30 30 30 30 0 0 0-30-30zm0 50a20 20 0 1 1 20-20 20 20 0 0 1-20 20z"/><path d="M243.906 59.36a20.002 20.002 0 1 1 .395 33.534l-5.35 8.447a29.997 29.997 0 1 0-.592-50.302z"/><path class="cls-2" d="M238.95 101.34l5.35-8.446a19.997 19.997 0 0 1-.394-33.535l-5.547-8.32a29.995 29.995 0 0 0 .592 50.302z"/><path class="cls-5" d="M469 46a30 30 0 1 0 30 30 30 30 0 0 0-30-30zm0 50a20 20 0 1 1 20-20 20 20 0 0 1-20 20z"/><path d="M485.64 64.906a20.002 20.002 0 1 1-33.534.395l-8.447-5.35a29.997 29.997 0 1 0 50.302-.592z"/><path class="cls-2" d="M443.66 59.95l8.446 5.35a19.997 19.997 0 0 1 33.535-.394l8.32-5.547a29.995 29.995 0 0 0-50.302.592z"/></g></g></svg>