<svg xmlns="http://www.w3.org/2000/svg" viewBox="0 0 494.19714 85.14984"><defs><style>.cls-1{fill:#936}.cls-2{fill:#fad11c}.cls-3{fill:#49a0c5}</style></defs><title>logo-colorflow-large</title><g id="Calque_2" data-name="Calque 2"><g id="Calque_1-2" data-name="Calque 1"><path d="M142.584 59.032h19.883v11.552h-33.044V12.828h13.161zM45.424 69.14c-19.903 0-28.643-14.459-28.643-26.62 0-12.051 8.74-26.51 28.643-26.51a29.451 29.451 0 0 1 17.06 5.586l3.033-6.269 3.416-7.148A43.719 43.719 0 0 0 43.378 0C19.421 0 0 19.061 0 42.575S19.421 85.15 43.378 85.15a43.719 43.719 0 0 0 25.555-8.18l-3.416-7.147-3.033-6.27a29.45 29.45 0 0 1-17.06 5.588z"/><path class="cls-1" d="M195.561 19.837c13.858 0 25.113 11.255 25.113 25.838 0 14.584-10.772 25.9-25.113 25.9-14.765 0-25.174-11.316-25.174-25.9 0-14.583 11.437-25.838 25.174-25.838zm0 40.725c9.077 0 12.829-7.443 12.829-14.887s-3.994-14.885-12.83-14.885c-8.775 0-12.89 7.443-12.89 14.886s3.57 14.887 12.89 14.887z"/><path class="cls-2" d="M94.561 19.837c13.858 0 25.113 11.255 25.113 25.838 0 14.584-10.772 25.9-25.113 25.9-14.765 0-25.174-11.316-25.174-25.9 0-14.583 11.437-25.838 25.174-25.838zm0 40.725c9.077 0 12.829-7.443 12.829-14.887S103.396 30.79 94.56 30.79c-8.775 0-12.89 7.443-12.89 14.886s3.57 14.887 12.89 14.887z"/><path class="cls-3" d="M384.561 19.837c13.858 0 25.113 11.255 25.113 25.838 0 14.584-10.772 25.9-25.113 25.9-14.765 0-25.174-11.316-25.174-25.9 0-14.583 11.437-25.838 25.174-25.838zm0 40.725c9.077 0 12.829-7.443 12.829-14.887s-3.994-14.885-12.83-14.885c-8.775 0-12.89 7.443-12.89 14.886s3.57 14.887 12.89 14.887z"/><path d="M251.015 12.828c10.71 0 18.832 5.81 18.832 17.151 0 8.682-4.761 14.492-11.832 16.733l19.882 23.872h-16.731L243.524 47.76v22.823h-13.162V12.828zm-5.951 25.622c4.97 0 10.921-.35 10.921-7.56s-5.95-7.561-10.921-7.561h-1.54v15.12zm68.811-14.071h-20.232V35.86h18.692v11.55h-18.692v23.174H280.48V12.828h33.394zm19.457 34.653h19.882v11.552H320.17V12.828h13.16zM453.943 38.17l-9.241 32.414H430.07l-16.45-57.756h14.63l9.872 39.624h.35l10.502-39.624h9.94l10.502 39.624h.35l9.87-39.624h14.562l-16.452 57.756h-14.562z"/></g></g></svg>