<svg xmlns="http://www.w3.org/2000/svg" viewBox="0 0 177 177"><defs><style>.cls-1{fill:url(#fad11c)}.cls-2{fill:none}</style><linearGradient id="fad11c" y1="88.5" x2="177" y2="88.5" gradientUnits="userSpaceOnUse"><stop offset="0" stop-color="#fad11c"/><stop offset=".095" stop-color="#e8a534"/><stop offset=".234" stop-color="#d06954"/><stop offset=".353" stop-color="#be3e6b"/><stop offset=".445" stop-color="#b3247a"/><stop offset=".5" stop-color="#af1a7f"/><stop offset=".576" stop-color="#914194"/><stop offset=".656" stop-color="#7763a5"/><stop offset=".739" stop-color="#637eb3"/><stop offset=".822" stop-color="#5491bd"/><stop offset=".908" stop-color="#4c9cc3"/><stop offset="1" stop-color="#49a0c5"/></linearGradient></defs><title>logo2</title><g id="Calque_2" data-name="Calque 2"><g id="Calque_1-2" data-name="Calque 1"><path class="cls-1" d="M88.5 0A88.5 88.5 0 1 0 177 88.5 88.5 88.5 0 0 0 88.5 0zm0 159A70.5 70.5 0 1 1 159 88.5 70.5 70.5 0 0 1 88.5 159z"/><path class="cls-2" d="M88.5 0A88.5 88.5 0 1 0 177 88.5 88.5 88.5 0 0 0 88.5 0zm0 159A70.5 70.5 0 1 1 159 88.5 70.5 70.5 0 0 1 88.5 159z"/><path d="M128.07 146.851a70.496 70.496 0 1 1-3.1-118.694l9.938-15.018a88.5 88.5 0 1 0 2.19 149.328z"/></g></g></svg>