<svg xmlns="http://www.w3.org/2000/svg" xmlns:xlink="http://www.w3.org/1999/xlink" viewBox="0 0 612.41797 108"><defs><style>.cls-1{fill:url(#fad11c)}.cls-2{fill:none}.cls-3{fill:url(#fad11c-2)}.cls-4{fill:url(#fad11c-3)}.cls-5{fill:url(#fad11c-4)}</style><linearGradient id="fad11c" x1="436" y1="72.5" x2="507" y2="72.5" gradientUnits="userSpaceOnUse"><stop offset="0" stop-color="#fad11c"/><stop offset=".095" stop-color="#e8a534"/><stop offset=".234" stop-color="#d06954"/><stop offset=".353" stop-color="#be3e6b"/><stop offset=".445" stop-color="#b3247a"/><stop offset=".5" stop-color="#af1a7f"/><stop offset=".576" stop-color="#914194"/><stop offset=".656" stop-color="#7763a5"/><stop offset=".739" stop-color="#637eb3"/><stop offset=".822" stop-color="#5491bd"/><stop offset=".908" stop-color="#4c9cc3"/><stop offset="1" stop-color="#49a0c5"/></linearGradient><linearGradient id="fad11c-2" x1="227" y1="72.5" x2="298" y2="72.5" xlink:href="#fad11c"/><linearGradient id="fad11c-3" x1="113" y1="72.5" x2="184" y2="72.5" xlink:href="#fad11c"/><linearGradient id="fad11c-4" y1="53.5" x2="107" y2="53.5" xlink:href="#fad11c"/></defs><title>logo3</title><g id="Calque_2" data-name="Calque 2"><g id="Calque_1-2" data-name="Calque 1"><path d="M190.697 84.857V16.995h16.121v66.822q0 4.941 2.015 6.955 2.016 2.016 7.215 2.016h6.11v13.91h-8.97q-11.44 0-16.965-5.395-5.526-5.395-5.526-16.446zm128.44-45.761v7.67a21.088 21.088 0 0 1 8.515-6.826 27.454 27.454 0 0 1 11.245-2.274 33.118 33.118 0 0 1 6.37.52v15.34a26.714 26.714 0 0 0-9.62-1.69q-7.67 0-11.895 4.485-4.225 4.486-4.226 12.936v37.441h-16.12V39.096zm58.239-3.38v3.38h14.561v11.31h-14.56v56.292h-15.991V50.406h-9.1v-11.31h9.1v-2.73q0-9.62 5.07-14.496 5.07-4.875 14.95-4.875h10.531v10.92h-5.98q-4.68 0-6.63 1.82-1.95 1.821-1.95 5.98zm25.089 49.141V16.995h16.12v66.822q0 4.941 2.016 6.955 2.015 2.016 7.215 2.016h6.11v13.91h-8.97q-11.44 0-16.966-5.395-5.525-5.395-5.525-16.446zm121.939-45.761l13.65 45.242 15.731-45.242h12.091l15.99 45.242 13.39-45.242h17.162l-23.271 67.602h-13.65l-15.601-45.761-15.731 45.761h-13.65l-23.142-67.602z"/><path class="cls-1" d="M471.5 37A35.5 35.5 0 1 0 507 72.5 35.5 35.5 0 0 0 471.5 37zm0 63.78a28.28 28.28 0 1 1 28.28-28.28 28.28 28.28 0 0 1-28.28 28.28z"/><path class="cls-2" d="M436 72.5A35.5 35.5 0 1 0 471.5 37 35.5 35.5 0 0 0 436 72.5zm63.78 0a28.28 28.28 0 1 1-28.28-28.28 28.28 28.28 0 0 1 28.28 28.28z"/><path d="M494.907 56.628a28.278 28.278 0 1 1-47.613 1.243l-6.024-3.987a35.5 35.5 0 1 0 59.9-.878z"/><path class="cls-3" d="M262.5 37A35.5 35.5 0 1 0 298 72.5 35.5 35.5 0 0 0 262.5 37zm0 63.78a28.28 28.28 0 1 1 28.28-28.28 28.28 28.28 0 0 1-28.28 28.28z"/><path class="cls-2" d="M262.5 108A35.5 35.5 0 1 0 227 72.5a35.5 35.5 0 0 0 35.5 35.5zm0-63.78a28.28 28.28 0 1 1-28.28 28.28 28.28 28.28 0 0 1 28.28-28.28z"/><path d="M246.628 49.093a28.278 28.278 0 1 1 1.243 47.613l-3.987 6.024a35.5 35.5 0 1 0-.878-59.9z"/><path class="cls-4" d="M148.5 37A35.5 35.5 0 1 0 184 72.5 35.5 35.5 0 0 0 148.5 37zm0 63.78a28.28 28.28 0 1 1 28.28-28.28 28.28 28.28 0 0 1-28.28 28.28z"/><path class="cls-2" d="M184 72.5a35.5 35.5 0 1 0-35.5 35.5A35.5 35.5 0 0 0 184 72.5zm-63.78 0a28.28 28.28 0 1 1 28.28 28.28 28.28 28.28 0 0 1-28.28-28.28z"/><path d="M125.093 88.372a28.278 28.278 0 1 1 47.613-1.243l6.024 3.987a35.5 35.5 0 1 0-59.9.878z"/><path class="cls-5" d="M53.5 0A53.5 53.5 0 1 0 107 53.5 53.5 53.5 0 0 0 53.5 0zm0 96.119A42.619 42.619 0 1 1 96.119 53.5 42.619 42.619 0 0 1 53.5 96.119z"/><path class="cls-2" d="M53.5 0A53.5 53.5 0 1 0 107 53.5 53.5 53.5 0 0 0 53.5 0zm0 96.119A42.619 42.619 0 1 1 96.119 53.5 42.619 42.619 0 0 1 53.5 96.119z"/><path d="M77.42 88.775a42.616 42.616 0 1 1-1.873-71.754l6.008-9.078a53.5 53.5 0 1 0 1.323 90.272z"/></g></g></svg>