<svg xmlns="http://www.w3.org/2000/svg" xmlns:xlink="http://www.w3.org/1999/xlink" viewBox="0 0 637.41797 120"><defs><style>.cls-1{fill:url(#fad11c)}.cls-2{fill:url(#fad11c-2)}.cls-3{fill:url(#fad11c-3)}.cls-4{fill:url(#fad11c-4)}</style><linearGradient id="fad11c" y1="60" x2="120" y2="60" gradientUnits="userSpaceOnUse"><stop offset="0" stop-color="#fad11c"/><stop offset=".095" stop-color="#e8a534"/><stop offset=".234" stop-color="#d06954"/><stop offset=".353" stop-color="#be3e6b"/><stop offset=".445" stop-color="#b3247a"/><stop offset=".5" stop-color="#af1a7f"/><stop offset=".576" stop-color="#914194"/><stop offset=".656" stop-color="#7763a5"/><stop offset=".739" stop-color="#637eb3"/><stop offset=".822" stop-color="#5491bd"/><stop offset=".908" stop-color="#4c9cc3"/><stop offset="1" stop-color="#49a0c5"/></linearGradient><linearGradient id="fad11c-2" x1="250" y1="82" x2="324" y2="82" xlink:href="#fad11c"/><linearGradient id="fad11c-3" x1="131" y1="82" x2="205" y2="82" xlink:href="#fad11c"/><linearGradient id="fad11c-4" x1="461" y1="82" x2="535" y2="82" xlink:href="#fad11c"/></defs><title>logo5</title><g id="Calque_2" data-name="Calque 2"><g id="Calque_1-2" data-name="Calque 1"><path d="M215.697 96.857V28.995h16.121v66.822q0 4.941 2.015 6.955 2.016 2.016 7.215 2.016h6.11v13.91h-8.97q-11.44 0-16.965-5.395-5.526-5.395-5.526-16.446zm128.44-45.761v7.67a21.088 21.088 0 0 1 8.515-6.826 27.454 27.454 0 0 1 11.245-2.274 33.118 33.118 0 0 1 6.37.52v15.34a26.714 26.714 0 0 0-9.62-1.69q-7.67 0-11.895 4.485-4.225 4.486-4.226 12.936v37.441h-16.12V51.096zm58.239-3.38v3.38h14.561v11.31h-14.56v56.292h-15.991V62.406h-9.1v-11.31h9.1v-2.73q0-9.62 5.07-14.496 5.07-4.875 14.95-4.875h10.531v10.92h-5.98q-4.68 0-6.63 1.82-1.95 1.821-1.95 5.98zm25.089 49.141V28.995h16.12v66.822q0 4.941 2.016 6.955 2.015 2.016 7.215 2.016h6.11v13.91h-8.97q-11.44 0-16.966-5.395-5.525-5.395-5.525-16.446zm121.939-45.761l13.65 45.242 15.731-45.242h12.091l15.99 45.242 13.39-45.242h17.162l-23.271 67.602h-13.65l-15.601-45.761-15.731 45.761h-13.65l-23.142-67.602z"/><path class="cls-1" d="M60 0a60 60 0 1 0 60 60A60 60 0 0 0 60 0zm0 100a40 40 0 1 1 40-40 40 40 0 0 1-40 40z"/><path d="M82.188 93.282a40.004 40.004 0 1 1-.79-67.07l10.7-16.893a59.995 59.995 0 1 0 1.184 100.604z"/><path class="cls-2" d="M287 45a37 37 0 1 0 37 37 37 37 0 0 0-37-37zm0 61.667A24.667 24.667 0 1 1 311.667 82 24.667 24.667 0 0 1 287 106.667z"/><path d="M273.317 61.476a24.669 24.669 0 1 1 .487 41.36l-6.598 10.418a36.997 36.997 0 1 0-.73-62.04z"/><path class="cls-3" d="M168 45a37 37 0 1 0 37 37 37 37 0 0 0-37-37zm0 61.667A24.667 24.667 0 1 1 192.667 82 24.667 24.667 0 0 1 168 106.667z"/><path d="M147.476 95.683a24.669 24.669 0 1 1 41.36-.487l10.418 6.598a36.997 36.997 0 1 0-62.04.73z"/><path class="cls-4" d="M498 45a37 37 0 1 0 37 37 37 37 0 0 0-37-37zm0 61.667A24.667 24.667 0 1 1 522.667 82 24.667 24.667 0 0 1 498 106.667z"/><path d="M518.524 68.317a24.669 24.669 0 1 1-41.36.487l-10.418-6.598a36.997 36.997 0 1 0 62.04-.73z"/></g></g></svg>