<svg xmlns="http://www.w3.org/2000/svg" viewBox="0 0 88.79638 110"><defs><style>.cls-1{fill:#3fa9f5}.cls-2{fill:#fad11c}.cls-3{fill:#936}</style></defs><title>logo_colorflow_small</title><g id="Calque_2" data-name="Calque 2"><g id="Calque_1-2" data-name="Calque 1"><path class="cls-1" d="M66.988 71.13l6.477 13.476s-7.45 6.401-21.942 6.401c-18.865 0-36.191-16.002-36.191-35.88 0-19.962 17.245-36.134 36.19-36.134 14.494 0 21.943 6.4 21.943 6.4L66.988 38.87a22.644 22.644 0 0 0-13.117-4.295c-15.303 0-22.023 11.117-22.023 20.383 0 9.35 6.72 20.467 22.023 20.467a22.644 22.644 0 0 0 13.117-4.295z"/><path class="cls-2" d="M70.873 73.904L78.465 89.7s-8.73 7.502-25.717 7.502c-22.11 0-42.416-18.755-42.416-42.052 0-23.397 20.211-42.35 42.416-42.35 16.986 0 25.717 7.502 25.717 7.502l-7.592 15.795A26.539 26.539 0 0 0 55.5 31.06c-17.934 0-25.81 13.03-25.81 23.89 0 10.958 7.876 23.988 25.81 23.988a26.539 26.539 0 0 0 15.373-5.035z"/><path class="cls-3" d="M75.536 77.234l8.929 18.577s-10.268 8.823-30.246 8.823c-26.004 0-49.887-22.059-49.887-49.46 0-27.516 23.771-49.808 49.887-49.808 19.978 0 30.246 8.823 30.246 8.823l-8.929 18.577a31.213 31.213 0 0 0-18.08-5.921c-21.094 0-30.357 15.325-30.357 28.097 0 12.888 9.263 28.213 30.357 28.213a31.213 31.213 0 0 0 18.08-5.921z"/><path d="M78.903 79.637l9.893 20.586S77.418 110 55.281 110C26.466 110 0 85.556 0 55.194 0 24.702 26.341 0 55.28 0c22.138 0 33.516 9.777 33.516 9.777l-9.893 20.586A34.587 34.587 0 0 0 58.868 23.8c-23.375 0-33.64 16.981-33.64 31.134 0 14.283 10.265 31.264 33.64 31.264a34.587 34.587 0 0 0 20.035-6.562z"/></g></g></svg>