  <svg class="logo__big logo" viewBox="0 0 630.41797 120" xmlns="http://www.w3.org/2000/svg" xmlns:xlink="http://www.w3.org/1999/xlink">
                   <defs>                   <style>.grad1{fill:url(#loga);}.grad2{fill:url(#logd);}.grad3{fill:url(#logc);}.grad4{fill:url(#logb);}</style>
                       <linearGradient id="loga" x2="120" y1="60" y2="60" gradientUnits="userSpaceOnUse">
                       <stop stop-color="#fad11c" offset="0"/>
                       <stop stop-color="#e8a534" offset=".09502"/>
                       <stop stop-color="#d06954" offset=".23417"/>
                       <stop stop-color="#be3e6b" offset=".353"/>
                       <stop stop-color="#b3247a" offset=".44537"/>
                       <stop stop-color="#af1a7f" offset=".5"/>
                       <stop stop-color="#914194" offset=".57574"/>
                       <stop stop-color="#7763a5" offset=".65635"/>
                       <stop stop-color="#637eb3" offset=".73874"/>
                       <stop stop-color="#5491bd" offset=".82249"/>
                       <stop stop-color="#4c9cc3" offset=".90844"/>
                       <stop stop-color="#49a0c5" offset="1"/>
                       </linearGradient>
                       <linearGradient id="logd" x1="127.67" x2="200.33" y1="83.333" y2="83.333" xlink:href="#loga"/>
                       <linearGradient id="logc" x1="243.33" x2="316" y1="83.394" y2="83.394" xlink:href="#loga"/>
                       <linearGradient id="logb" x1="454.33" x2="527" y1="83.394" y2="83.394" xlink:href="#loga"/>
                   </defs>
                   <g data-name="logo_colorflow">
                   <path d="m208.7 97.857v-67.862h16.121v66.822q0 4.9409 2.0146 6.9551 2.0156 2.0156 7.2153 2.0156h6.1104v13.91h-8.9702q-11.44 0-16.966-5.3955-5.5254-5.395-5.5254-16.445z"/>
                   <path d="m337.14 52.096v7.6699a21.088 21.088 0 0 1 8.5151 -6.8252 27.454 27.454 0 0 1 11.246 -2.2744 33.118 33.118 0 0 1 6.3701 0.51953v15.341a26.714 26.714 0 0 0 -9.6201 -1.6904q-7.6707 0-11.896 4.4854-4.2253 4.4853-4.2256 12.936v37.441h-16.12v-67.603z"/>
                   <path d="m395.38 48.716v3.3799h14.561v11.311h-14.561v56.292h-15.991v-56.292h-9.1001v-11.311h9.1001v-2.7305q0-9.6196 5.0703-14.495 5.0706-4.875 14.951-4.875h10.53v10.92h-5.98q-4.6802 0-6.6304 1.8203-1.9504 1.8208-1.9502 5.9805z"/>
                   <path d="m420.46 97.857v-67.862h16.121v66.822q0 4.9409 2.0146 6.9551 2.0156 2.0156 7.2153 2.0156h6.1104v13.91h-8.9702q-11.44 0-16.966-5.3955-5.5254-5.395-5.5254-16.445z"/>
                   <path d="m542.4 52.096l13.65 45.242 15.73-45.242h12.091l15.99 45.242 13.391-45.242h17.161l-23.271 67.603h-13.65l-15.601-45.762-15.731 45.762h-13.65l-23.142-67.603z"/>
                   <path class="grad1" d="M60,0a60,60,0,1,0,60,60A60,60,0,0,0,60,0Zm0,100a40,40,0,1,1,40-40A40,40,0,0,1,60,100Z"/>
                   <g class="logo__el logo__el--c">
                       <path d="m82.188 93.282a40.004 40.004 0 1 1 -0.78907 -67.069l10.699-16.894a59.995 59.995 0 1 0 1.1835 100.6z"/>
                       <path d="m120 60l-1 1h1"/>
                   </g>
                   <path class="grad2" d="m164 47a36.333 36.333 0 1 0 36.333 36.333 36.333 36.333 0 0 0 -36.333 -36.333zm0 60.556a24.222 24.222 0 1 1 24.222 -24.222 24.222 24.222 0 0 1 -24.222 24.222z"/>
                   <g class="logo__el logo__el--o1">
                       <path d="m143.85 96.769a24.224 24.224 0 1 1 40.614 -0.47782l10.23 6.4791a36.33 36.33 0 1 0 -60.921 0.71669z"/>
                       <path d="m164 119.67l-0.60556-0.60556v0.60556"/>    
                   </g>
                   <path class="grad3" d="m279.67 47.061a36.333 36.333 0 1 0 36.333 36.333 36.333 36.333 0 0 0 -36.333 -36.333zm0 60.556a24.222 24.222 0 1 1 24.222 -24.222 24.222 24.222 0 0 1 -24.222 24.222z"/>
                   <g class="logo__el logo__el--o2">
                       <path d="m266.23 63.24a24.224 24.224 0 1 1 0.47782 40.614l-6.4791 10.23a36.33 36.33 0 1 0 -0.71669 -60.921z"/>
                       <path d="m243.33 83.394l0.60556-0.60555h-0.60556"/>
                   </g>
                   <path class="grad4" d="m490.67 47.061a36.333 36.333 0 1 0 36.333 36.333 36.333 36.333 0 0 0 -36.333 -36.333zm0 60.556a24.222 24.222 0 1 1 24.222 -24.222 24.222 24.222 0 0 1 -24.222 24.222z"/>
                   <g class="logo__el logo__el--o3">
                       <path d="m510.82 69.958a24.224 24.224 0 1 1 -40.614 0.47782l-10.23-6.4791a36.33 36.33 0 1 0 60.921 -0.71669z"/>
                       <path d="m490.67 47.061l0.60555 0.60556v-0.60556"/>
                   </g>
                   </g>
               </svg>